<svg width="147" height="79" viewBox="0 0 147 79" fill="none" xmlns="http://www.w3.org/2000/svg">
<path d="M1.78676 27.9377C1.35224 25.2107 3.22862 22.7891 5.97777 22.529L126.627 11.1135C129.376 10.8534 131.957 12.8532 132.392 15.5803L138.105 51.4347C138.539 54.1617 136.663 56.5832 133.914 56.8434L13.2643 68.2589C10.5151 68.519 7.93423 66.5191 7.49971 63.7921L1.78676 27.9377Z" fill="black" fill-opacity="0.34" style="mix-blend-mode:multiply"/>
<path d="M3.12362 40.1495C1.94888 37.6623 3.13395 35.0423 5.77584 34.2857L120.456 1.44445C123.201 0.658424 126.421 2.19064 127.521 4.8058L142.159 39.6224C143.189 42.0708 141.971 44.5706 139.395 45.2947L26.0615 77.1627C23.4022 77.9104 20.2885 76.4909 19.1086 73.9928L3.12362 40.1495Z" fill="#E937C2" fill-opacity="0.92" style="mix-blend-mode:multiply"/>
<path d="M9.43736 17.9681C9.74887 15.2243 12.2349 13.1506 14.9901 13.3363L135.995 21.4943C138.75 21.68 140.731 24.0549 140.42 26.7987L136.546 60.9145C136.235 63.6583 133.749 65.732 130.994 65.5463L9.98867 57.3883C7.2335 57.2026 5.25254 54.8277 5.56405 52.0839L9.43736 17.9681Z" fill="#4CDCFC"/>
<path opacity="0.5" d="M72.2921 16.8175C72.8374 16.6891 73.4004 16.6533 73.9575 16.7115L134.952 23.0803C137.727 23.3701 139.729 25.8762 139.397 28.6473L137.891 41.2344C137.654 43.2163 136.26 44.8673 134.347 45.4343L124 48.5L100 55L78.8861 61.7181C78.3004 61.9044 77.6853 61.9812 77.0718 61.9445L45.8462 60.0786L10.2301 57.6771C7.60516 57.5001 5.56644 55.3193 5.56644 52.6885V36.4905C5.56644 34.1706 7.16218 32.1554 9.42031 31.6236L72.2921 16.8175Z" fill="#1F1048"/>
<path d="M38.5479 34.6434L38.1885 36.4403H34.9854L33.1104 45.8153H31.0401L32.9151 36.4403H29.712L30.0713 34.6434H38.5479ZM42.3604 37.6122C44.6937 37.6122 45.6963 38.4299 45.3682 40.0653C45.0401 41.7007 43.7745 42.5184 41.5713 42.5184H39.5167C39.2979 43.6226 39.9073 44.1747 41.3448 44.1747C42.4333 44.1747 43.4594 43.8361 44.4229 43.1591L44.0948 44.7997C43.2354 45.4768 42.1573 45.8153 40.8604 45.8153C38.1469 45.8153 37.0687 44.4169 37.626 41.62C38.1625 38.9481 39.7406 37.6122 42.3604 37.6122ZM39.8213 41.0028H41.8917C42.751 41.0028 43.2406 40.7085 43.3604 40.12C43.475 39.5315 43.0323 39.2372 42.0323 39.2372C40.8864 39.2372 40.1495 39.8257 39.8213 41.0028ZM50.0557 34.6434L47.8213 45.8153H45.751L47.9854 34.6434H50.0557ZM59.1182 37.6122L57.4776 45.8153H55.6417L55.962 43.0497C54.9463 44.8934 53.6755 45.8153 52.1495 45.8153C50.5713 45.8153 49.9594 44.9273 50.3135 43.1512L51.4229 37.6122H53.4932L52.3838 43.1747C52.2536 43.8205 52.5609 44.1434 53.3057 44.1434C54.2901 44.1434 55.2745 43.2762 56.2588 41.5419L57.0479 37.6122H59.1182ZM59.4385 45.8153L61.0792 37.6122H62.9151L62.5948 40.3778C63.6104 38.5341 64.8812 37.6122 66.4073 37.6122C67.9854 37.6122 68.5974 38.5002 68.2432 40.2762L67.1338 45.8153H65.0635L66.1729 40.2528C66.3031 39.607 65.9958 39.2841 65.251 39.2841C64.2667 39.2841 63.2823 40.1512 62.2979 41.8856L61.5088 45.8153H59.4385ZM73.3995 34.6434L73.0713 36.2841H71.001L71.3292 34.6434H73.3995ZM72.8057 37.6122L71.1651 45.8153H69.0948L70.7354 37.6122H72.8057ZM73.7901 37.6122H75.9776L76.8213 43.3466L80.0401 37.6122H82.2276L77.251 45.8153H75.2823L73.7901 37.6122ZM86.626 37.6122C88.9594 37.6122 89.962 38.4299 89.6338 40.0653C89.3057 41.7007 88.0401 42.5184 85.837 42.5184H83.7823C83.5635 43.6226 84.1729 44.1747 85.6104 44.1747C86.6989 44.1747 87.725 43.8361 88.6885 43.1591L88.3604 44.7997C87.501 45.4768 86.4229 45.8153 85.126 45.8153C82.4125 45.8153 81.3344 44.4169 81.8917 41.62C82.4281 38.9481 84.0062 37.6122 86.626 37.6122ZM84.087 41.0028H86.1573C87.0167 41.0028 87.5062 40.7085 87.626 40.12C87.7406 39.5315 87.2979 39.2372 86.2979 39.2372C85.1521 39.2372 84.4151 39.8257 84.087 41.0028ZM106.782 34.6434L106.423 36.4403H103.22L101.345 45.8153H99.2745L101.149 36.4403H97.9463L98.3057 34.6434H106.782ZM106.196 37.6122H108.384L109.228 43.3466L112.446 37.6122H114.634L109.657 45.8153H107.689L106.196 37.6122Z" fill="white" fill-opacity="0.97"/>
</svg>
